<svg width="22" height="16" viewBox="0 0 22 16" fill="none" xmlns="http://www.w3.org/2000/svg">
<path d="M4.8434 15.5576C4.06287 15.5576 3.40017 15.2847 2.8553 14.7387C2.31044 14.1928 2.038 13.5299 2.038 12.75H0.345703V2.3077C0.345703 1.80257 0.520703 1.375 0.870703 1.025C1.2207 0.675 1.64826 0.5 2.15338 0.5H15.7688V4.3077H18.4226L21.6534 8.63463V12.75H19.8457C19.8457 13.5299 19.5725 14.1928 19.0261 14.7387C18.4797 15.2847 17.8163 15.5576 17.0357 15.5576C16.2552 15.5576 15.5925 15.2847 15.0476 14.7387C14.5027 14.1928 14.2303 13.5299 14.2303 12.75H7.65335C7.65335 13.532 7.38016 14.1955 6.83378 14.7403C6.28741 15.2852 5.62395 15.5576 4.8434 15.5576ZM4.84568 14.0577C5.21234 14.0577 5.52196 13.9314 5.77453 13.6788C6.02709 13.4263 6.15338 13.1166 6.15338 12.75C6.15338 12.3833 6.02709 12.0737 5.77453 11.8211C5.52196 11.5685 5.21234 11.4423 4.84568 11.4423C4.47899 11.4423 4.16937 11.5685 3.9168 11.8211C3.66424 12.0737 3.53795 12.3833 3.53795 12.75C3.53795 13.1166 3.66424 13.4263 3.9168 13.6788C4.16937 13.9314 4.47899 14.0577 4.84568 14.0577ZM1.84568 11.25H2.56875C2.78155 10.8795 3.08892 10.5689 3.49085 10.3183C3.89279 10.0676 4.34439 9.94228 4.84568 9.94228C5.33414 9.94228 5.78254 10.066 6.19088 10.3135C6.59921 10.5609 6.90979 10.8731 7.1226 11.25H14.2688V1.99998H2.15338C2.07646 1.99998 2.00594 2.03203 1.94183 2.09613C1.87773 2.16024 1.84568 2.23077 1.84568 2.3077V11.25ZM17.038 14.0577C17.4047 14.0577 17.7143 13.9314 17.9669 13.6788C18.2194 13.4263 18.3457 13.1166 18.3457 12.75C18.3457 12.3833 18.2194 12.0737 17.9669 11.8211C17.7143 11.5685 17.4047 11.4423 17.038 11.4423C16.6713 11.4423 16.3617 11.5685 16.1091 11.8211C15.8566 12.0737 15.7303 12.3833 15.7303 12.75C15.7303 13.1166 15.8566 13.4263 16.1091 13.6788C16.3617 13.9314 16.6713 14.0577 17.038 14.0577ZM15.7688 9.25H20.2495L17.6534 5.80765H15.7688V9.25Z" fill="#1D2F53"/>
</svg>
