<svg width="18" height="21" viewBox="0 0 18 21" fill="none" xmlns="http://www.w3.org/2000/svg">
<path d="M6.1923 1.74995V0.25H11.8077V1.74995H6.1923ZM8.25 12.8077H9.74995V7.1923H8.25V12.8077ZM8.99998 20.5C7.83074 20.5 6.73075 20.2769 5.7 19.8307C4.66923 19.3846 3.76795 18.7756 2.99615 18.0038C2.22437 17.232 1.6154 16.3307 1.16925 15.3C0.723083 14.2692 0.5 13.1692 0.5 12C0.5 10.8307 0.723083 9.73075 1.16925 8.7C1.6154 7.66923 2.22437 6.76795 2.99615 5.99615C3.76795 5.22437 4.66923 4.6154 5.7 4.16925C6.73075 3.72308 7.83074 3.5 8.99998 3.5C10.0013 3.5 10.9657 3.66988 11.8933 4.00963C12.8208 4.34938 13.682 4.83592 14.4769 5.46925L15.723 4.2231L16.7769 5.27693L15.5307 6.52308C16.164 7.31794 16.6506 8.17915 16.9903 9.1067C17.3301 10.0343 17.5 10.9987 17.5 12C17.5 13.1692 17.2769 14.2692 16.8307 15.3C16.3846 16.3307 15.7756 17.232 15.0038 18.0038C14.232 18.7756 13.3307 19.3846 12.3 19.8307C11.2692 20.2769 10.1692 20.5 8.99998 20.5ZM8.99998 19C10.9333 19 12.5833 18.3166 13.95 16.95C15.3166 15.5833 16 13.9333 16 12C16 10.0666 15.3166 8.41664 13.95 7.04998C12.5833 5.68331 10.9333 4.99998 8.99998 4.99998C7.06664 4.99998 5.41664 5.68331 4.04998 7.04998C2.68331 8.41664 1.99997 10.0666 1.99997 12C1.99997 13.9333 2.68331 15.5833 4.04998 16.95C5.41664 18.3166 7.06664 19 8.99998 19Z" fill="#1D2F53"/>
</svg>
