<svg width="160" height="69" viewBox="0 0 160 69" fill="none" xmlns="http://www.w3.org/2000/svg">
<path d="M105.497 0V8.8821H104.424C104.266 8.8821 104.132 8.85771 104.022 8.80894C103.916 8.75611 103.811 8.6667 103.705 8.54071L99.517 3.24315C99.5333 3.40165 99.5434 3.55609 99.5475 3.70646C99.5556 3.85277 99.5597 3.99095 99.5597 4.121V8.8821H97.743V0H98.8282C98.9176 0 98.9928 0.00406405 99.0537 0.0121922C99.1147 0.0203203 99.1695 0.0365767 99.2183 0.0609615C99.2671 0.081282 99.3138 0.111763 99.3585 0.152404C99.4032 0.193045 99.454 0.24791 99.5109 0.317L103.736 5.65113C103.715 5.48044 103.701 5.31585 103.693 5.15735C103.685 4.99478 103.681 4.84238 103.681 4.70013V0H105.497Z" fill="black"/>
<path d="M96.0294 8.8821H93.9568V0H96.0294V8.8821Z" fill="black"/>
<path d="M86.2184 1.585V3.65769H89.0105V5.18173H86.2184V7.2971H89.8639V8.8821H84.1458V0H89.8639V1.585H86.2184Z" fill="black"/>
<path d="M82.9297 4.438C82.9297 5.08013 82.8179 5.67349 82.5944 6.21808C82.3749 6.7586 82.064 7.22801 81.6617 7.62629C81.2593 8.02051 80.7737 8.32938 80.2047 8.5529C79.6398 8.77237 79.0119 8.8821 78.321 8.8821H74.8705V0H78.321C79.0119 0 79.6398 0.111763 80.2047 0.335288C80.7737 0.558814 81.2593 0.867685 81.6617 1.2619C82.064 1.65612 82.3749 2.12553 82.5944 2.67012C82.8179 3.21064 82.9297 3.79994 82.9297 4.438ZM80.8204 4.438C80.8204 3.99908 80.7635 3.60283 80.6497 3.24925C80.5359 2.89567 80.3713 2.59696 80.1559 2.35311C79.9446 2.1052 79.6845 1.91622 79.3756 1.78617C79.0667 1.65206 78.7152 1.585 78.321 1.585H76.9432V7.2971H78.321C78.7152 7.2971 79.0667 7.23207 79.3756 7.10202C79.6845 6.9679 79.9446 6.77892 80.1559 6.53508C80.3713 6.28717 80.5359 5.98642 80.6497 5.63285C80.7635 5.27927 80.8204 4.88099 80.8204 4.438Z" fill="black"/>
<path d="M70.8966 5.48654L70.0737 3.05417C70.0127 2.89974 69.9477 2.71888 69.8786 2.51162C69.8095 2.30028 69.7404 2.07269 69.6713 1.82885C69.6103 2.07676 69.5453 2.30638 69.4762 2.51771C69.4071 2.72904 69.3421 2.91193 69.2812 3.06637L68.4643 5.48654H70.8966ZM74.1703 8.8821H72.5731C72.3943 8.8821 72.25 8.84146 72.1403 8.76017C72.0305 8.67483 71.9472 8.56713 71.8903 8.43708L71.366 6.88865H67.9888L67.4645 8.43708C67.4198 8.55087 67.3385 8.65451 67.2207 8.74798C67.1069 8.83739 66.9646 8.8821 66.7939 8.8821H65.1845L68.6228 0H70.732L74.1703 8.8821Z" fill="black"/>
<path d="M64.484 0V8.8821H62.6673V3.77352C62.6673 3.65566 62.6694 3.52764 62.6734 3.38946C62.6815 3.25128 62.6937 3.11107 62.71 2.96883L60.3508 7.53485C60.2776 7.67709 60.1781 7.78479 60.0521 7.85794C59.9301 7.9311 59.7899 7.96767 59.6314 7.96767H59.351C59.1925 7.96767 59.0503 7.9311 58.9243 7.85794C58.8024 7.78479 58.7048 7.67709 58.6317 7.53485L56.2725 2.95663C56.2846 3.10294 56.2948 3.24722 56.3029 3.38946C56.3111 3.52764 56.3151 3.65566 56.3151 3.77352V8.8821H54.4985V0H56.0713C56.1607 0 56.2379 0.0020319 56.3029 0.00609571C56.372 0.01016 56.433 0.0223524 56.4858 0.0426729C56.5387 0.0629934 56.5854 0.0955063 56.626 0.140212C56.6707 0.180853 56.7134 0.239782 56.7541 0.317L59.0401 4.82206C59.1214 4.97649 59.1986 5.13703 59.2718 5.30365C59.349 5.47028 59.4221 5.64097 59.4912 5.81573C59.5603 5.63691 59.6314 5.46215 59.7046 5.29146C59.7818 5.12077 59.8631 4.9582 59.9484 4.80377L62.2284 0.317C62.269 0.239782 62.3097 0.180853 62.3503 0.140212C62.395 0.0955063 62.4438 0.0629934 62.4966 0.0426729C62.5495 0.0223524 62.6084 0.01016 62.6734 0.00609571C62.7425 0.0020319 62.8218 0 62.9112 0H64.484Z" fill="black"/>
<path d="M133.011 38.0461V51.5552H124.769V38.0461L111.894 16.0268H119.161C119.876 16.0268 120.437 16.1975 120.843 16.5389C121.266 16.864 121.615 17.2867 121.892 17.8069L126.915 28.1459C127.338 28.9588 127.72 29.7228 128.061 30.4381C128.403 31.1371 128.703 31.828 128.963 32.5108C129.207 31.8118 129.484 31.1127 129.792 30.4137C130.118 29.6984 130.492 28.9425 130.914 28.1459L135.889 17.8069C136.002 17.5955 136.141 17.3842 136.303 17.1729C136.466 16.9615 136.653 16.7746 136.864 16.612C137.092 16.4332 137.344 16.295 137.62 16.1975C137.913 16.0837 138.23 16.0268 138.571 16.0268H145.886L133.011 38.0461Z" fill="black"/>
<path d="M116.445 44.9713V51.5552H95.0352V16.0268H103.277V44.9713H116.445Z" fill="black"/>
<path d="M79.1395 37.9729L75.8476 28.2435C75.6038 27.6257 75.3437 26.9023 75.0673 26.0733C74.7909 25.2279 74.5146 24.3176 74.2382 23.3422C73.9944 24.3338 73.7343 25.2523 73.4579 26.0976C73.1815 26.943 72.9214 27.6745 72.6776 28.2923L69.4101 37.9729H79.1395ZM92.2341 51.5552H85.8453C85.13 51.5552 84.5529 51.3926 84.114 51.0675C83.6751 50.7261 83.3418 50.2953 83.1142 49.7751L81.0171 43.5814H67.5081L65.411 49.7751C65.2322 50.2303 64.907 50.6448 64.4356 51.0187C63.9804 51.3764 63.4114 51.5552 62.7287 51.5552H56.2911L70.0441 16.0268H78.4811L92.2341 51.5552Z" fill="black"/>
<path d="M59.652 22.5619H49.6543V51.5552H41.4123V22.5619H31.4146V16.0268H59.652V22.5619Z" fill="black"/>
<path d="M27.267 51.5552H18.9762V16.0268H27.267V51.5552Z" fill="black"/>
<path fill-rule="evenodd" clip-rule="evenodd" d="M48.7572 0.547974H3.03607H0.0360718V3.54797V65.2715V68.2715H3.03607H48.7572V62.2715H6.03607V6.54797H48.7572V0.547974ZM112.005 62.2715H153.964V6.54797H112.005V0.547974H156.964H159.964V3.54797V65.2715V68.2715H156.964H112.005V62.2715Z" fill="url(#paint0_linear_291_3957)"/>
<defs>
<linearGradient id="paint0_linear_291_3957" x1="3.88049" y1="34.0205" x2="159.964" y2="34.0205" gradientUnits="userSpaceOnUse">
<stop stop-color="#008C43"/>
<stop offset="0.443522" stop-color="#008C43"/>
<stop offset="0.58035" stop-color="#CA2129"/>
<stop offset="1" stop-color="#CA2129"/>
</linearGradient>
</defs>
</svg>
