<svg width="96" height="97" viewBox="0 0 96 97" fill="none" xmlns="http://www.w3.org/2000/svg">
<path d="M48 95C73.6812 95 94.5 74.1812 94.5 48.5C94.5 22.8188 73.6812 2 48 2C22.3188 2 1.5 22.8188 1.5 48.5C1.5 74.1812 22.3188 95 48 95Z" stroke="#DE181F" stroke-width="3" stroke-miterlimit="10"/>
<path d="M48 81.7792C66.3796 81.7792 81.2792 66.8796 81.2792 48.5C81.2792 30.1204 66.3796 15.2208 48 15.2208C29.6204 15.2208 14.7208 30.1204 14.7208 48.5C14.7208 66.8796 29.6204 81.7792 48 81.7792Z" stroke="#DE181F" stroke-miterlimit="10"/>
<path d="M12.0352 55.9124L12.2109 57.0992L8.36523 57.6684L8.18179 56.4291C8.12657 56.056 8.1563 55.7254 8.27099 55.4372C8.38443 55.1493 8.57402 54.9133 8.83975 54.7294C9.10423 54.5457 9.43551 54.4244 9.83359 54.3655C10.2342 54.3062 10.5896 54.3265 10.8999 54.4264C11.209 54.5265 11.4613 54.7015 11.6569 54.9514C11.8513 55.2015 11.9774 55.5218 12.0352 55.9124ZM11.7288 56.6946L11.6265 56.0036C11.5795 55.6856 11.4791 55.4312 11.3255 55.2403C11.1719 55.0494 10.9742 54.9194 10.7324 54.8503C10.4906 54.7812 10.2133 54.7698 9.9003 54.8161C9.58984 54.8621 9.33008 54.9523 9.12101 55.0869C8.91069 55.2217 8.76036 55.3987 8.67002 55.618C8.57843 55.8376 8.55487 56.0975 8.59934 56.398L8.70941 57.1416L11.7288 56.6946Z" fill="black"/>
<path d="M7.61265 51.1819L11.4968 51.0204L11.5164 51.4908L7.6322 51.6522L7.61265 51.1819Z" fill="black"/>
<path d="M8.60335 47.1003C8.41002 47.1121 8.25568 47.1958 8.14034 47.3515C8.025 47.5072 7.96064 47.7025 7.94726 47.9375C7.93747 48.1093 7.9567 48.2612 8.00495 48.3933C8.05327 48.5241 8.12403 48.6282 8.21721 48.7058C8.31046 48.7821 8.41899 48.8237 8.54281 48.8308C8.64641 48.8367 8.73689 48.8171 8.81423 48.7721C8.89039 48.7257 8.95534 48.6648 9.00907 48.5893C9.06154 48.5137 9.10602 48.4338 9.1425 48.3497C9.17771 48.2655 9.20685 48.188 9.2299 48.117L9.35848 47.7289C9.39077 47.6293 9.43381 47.519 9.48761 47.3978C9.54148 47.2754 9.61209 47.1596 9.69942 47.0505C9.78557 46.9401 9.8933 46.8512 10.0226 46.7837C10.152 46.7163 10.3076 46.6878 10.4895 46.6982C10.6992 46.7101 10.8856 46.7759 11.0487 46.8954C11.2118 47.0137 11.3373 47.1806 11.4251 47.396C11.5131 47.6101 11.5485 47.8663 11.5315 48.1645C11.5157 48.4424 11.4572 48.6805 11.3559 48.8788C11.2547 49.0759 11.1205 49.2279 10.9534 49.335C10.7864 49.4409 10.5964 49.4953 10.3832 49.4984L10.4109 49.0132C10.5582 49.009 10.6823 48.9666 10.7832 48.8861C10.8829 48.8044 10.9599 48.6985 11.0142 48.5685C11.0673 48.4372 11.0983 48.2944 11.107 48.1403C11.1173 47.9609 11.0974 47.7981 11.0474 47.6521C10.9961 47.5059 10.9205 47.3882 10.8203 47.2988C10.719 47.2094 10.5975 47.1606 10.456 47.1526C10.3272 47.1452 10.2202 47.1753 10.1353 47.2427C10.0503 47.3101 9.97922 47.4011 9.92199 47.5157C9.86476 47.6303 9.81331 47.7548 9.76764 47.8891L9.60399 48.3589C9.49954 48.6571 9.36142 48.8901 9.18963 49.0578C9.01783 49.2254 8.80117 49.3018 8.53964 49.2869C8.32234 49.2745 8.13617 49.205 7.98114 49.0783C7.82493 48.9502 7.70765 48.7839 7.62932 48.5791C7.5498 48.3731 7.51709 48.1462 7.53119 47.8986C7.54544 47.6484 7.60296 47.4286 7.70374 47.2392C7.80326 47.0496 7.93333 46.9024 8.09395 46.7975C8.25463 46.6913 8.43307 46.6406 8.62926 46.6454L8.60335 47.1003Z" fill="black"/>
<path d="M11.7398 44.2388L7.92816 43.4744L8.18645 42.1865C8.24642 41.8875 8.34941 41.6539 8.49543 41.4857C8.64045 41.316 8.81337 41.2035 9.01417 41.1483C9.21498 41.0931 9.42767 41.088 9.65225 41.133C9.87683 41.178 10.0717 41.2649 10.2369 41.3935C10.4024 41.5209 10.5207 41.6905 10.5918 41.9022C10.6617 42.1137 10.6669 42.3677 10.6074 42.6643L10.4223 43.5874L10.0128 43.5053L10.195 42.597C10.236 42.3923 10.2337 42.2208 10.1878 42.0826C10.142 41.9443 10.0645 41.8352 9.95532 41.7552C9.84517 41.6737 9.71379 41.6177 9.56118 41.5871C9.40856 41.5565 9.26636 41.5577 9.13455 41.5906C9.003 41.6223 8.89054 41.694 8.79717 41.8056C8.70255 41.917 8.63447 42.0763 8.59291 42.2835L8.43018 43.0949L11.8324 43.7772L11.7398 44.2388Z" fill="black"/>
<path d="M12.0767 35.4492C12.4616 35.5905 12.7688 35.782 12.9981 36.0239C13.2275 36.2658 13.3737 36.5358 13.4369 36.8339C13.5 37.1321 13.4745 37.4368 13.3603 37.7481C13.2461 38.0593 13.0684 38.3082 12.8275 38.4948C12.5865 38.6813 12.3003 38.7927 11.9689 38.8288C11.6375 38.8649 11.2794 38.8123 10.8945 38.6711C10.5095 38.5299 10.2024 38.3383 9.97304 38.0964C9.74367 37.8546 9.59742 37.5845 9.53428 37.2864C9.47114 36.9882 9.49668 36.6835 9.61089 36.3723C9.72511 36.061 9.90271 35.8121 10.1437 35.6255C10.3847 35.439 10.6709 35.3276 11.0023 35.2915C11.3336 35.2554 11.6918 35.308 12.0767 35.4492ZM11.9198 35.8769C11.6038 35.7609 11.3176 35.7159 11.0614 35.7419C10.8057 35.7667 10.589 35.8483 10.4115 35.9867C10.2345 36.1239 10.1054 36.303 10.0243 36.524C9.94324 36.7449 9.92562 36.9656 9.97147 37.186C10.0178 37.4052 10.1302 37.6075 10.3088 37.793C10.4879 37.9773 10.7354 38.1275 11.0514 38.2434C11.3674 38.3594 11.6533 38.405 11.9091 38.3802C12.1653 38.3542 12.3819 38.2727 12.559 38.1354C12.7365 37.997 12.8658 37.8173 12.9468 37.5964C13.0279 37.3754 13.0453 37.1553 12.999 36.9361C12.9532 36.7158 12.8407 36.5134 12.6617 36.3291C12.4831 36.1436 12.2358 35.9929 11.9198 35.8769Z" fill="black"/>
<path d="M13.4188 30.29C13.2395 30.2168 13.0641 30.2253 12.8927 30.3155C12.7212 30.4057 12.5785 30.5538 12.4645 30.7597C12.3811 30.9103 12.3326 31.0555 12.3188 31.1954C12.3056 31.3342 12.3241 31.4588 12.3744 31.5691C12.4254 31.6783 12.5051 31.7629 12.6136 31.823C12.7043 31.8732 12.7944 31.8948 12.8836 31.8878C12.9723 31.8791 13.0573 31.8523 13.1384 31.8076C13.2185 31.7623 13.2932 31.7096 13.3626 31.6496C13.4308 31.5891 13.4907 31.5318 13.5423 31.4779L13.8265 31.184C13.8988 31.1083 13.9855 31.0275 14.0865 30.9417C14.1881 30.8548 14.302 30.7811 14.428 30.7207C14.5535 30.6586 14.6892 30.6252 14.8349 30.6205C14.9807 30.6159 15.1333 30.6577 15.2927 30.746C15.4765 30.8477 15.6159 30.9878 15.7109 31.1663C15.8066 31.3436 15.8473 31.5484 15.833 31.7806C15.8193 32.0117 15.7401 32.2579 15.5955 32.5192C15.4606 32.7627 15.3046 32.9519 15.1273 33.0866C14.9506 33.2202 14.7638 33.299 14.5668 33.3231C14.3704 33.346 14.1755 33.3126 13.9822 33.2229L14.2175 32.7977C14.3521 32.8578 14.4823 32.8734 14.6081 32.8447C14.7334 32.8143 14.8488 32.7523 14.9541 32.6587C15.0589 32.5635 15.1487 32.4483 15.2235 32.3132C15.3105 32.156 15.3632 32.0007 15.3815 31.8474C15.3988 31.6935 15.3817 31.5546 15.3302 31.4307C15.2777 31.3061 15.1894 31.2095 15.0654 31.1408C14.9525 31.0783 14.8431 31.059 14.7373 31.0829C14.6315 31.1068 14.528 31.1579 14.4267 31.2364C14.3254 31.3148 14.2251 31.4046 14.1257 31.5058L13.7744 31.8581C13.5509 32.0815 13.3254 32.2315 13.0979 32.3081C12.8704 32.3846 12.642 32.3594 12.4128 32.2325C12.2224 32.1271 12.0848 31.9837 12.0001 31.8023C11.9149 31.6191 11.8814 31.4184 11.8997 31.1999C11.9174 30.9797 11.9864 30.7612 12.1065 30.5442C12.2279 30.325 12.375 30.1519 12.548 30.0249C12.7199 29.8973 12.901 29.8211 13.0912 29.7962C13.2821 29.7702 13.4648 29.802 13.6395 29.8915L13.4188 30.29Z" fill="black"/>
<path d="M14.6393 26.4616L17.8358 28.6742L17.5679 29.0613L14.3714 26.8487L14.6393 26.4616Z" fill="black"/>
<path d="M15.9556 25.2398L15.636 24.971L17.5129 22.7398L17.8324 23.0086L17.0455 23.9441L19.7009 26.1777L19.3979 26.538L16.7425 24.3043L15.9556 25.2398Z" fill="black"/>
<path d="M19.5054 20.6238L22.2336 23.3933L21.8982 23.7236L19.17 20.9542L19.5054 20.6238Z" fill="black"/>
<path d="M21.0425 19.1046L23.9954 20.9272L24.0309 20.8986L22.8746 17.6268L23.2587 17.317L24.5884 21.239L24.2101 21.5441L20.6584 19.4144L21.0425 19.1046Z" fill="black"/>
<path d="M29.2517 15.6833C29.4576 16.0379 29.5715 16.3815 29.5934 16.7141C29.6153 17.0467 29.5553 17.3479 29.4134 17.6176C29.2715 17.8873 29.0571 18.1054 28.7704 18.2719C28.4837 18.4383 28.188 18.5164 27.8834 18.5059C27.5788 18.4954 27.2876 18.3983 27.0096 18.2143C26.7316 18.0304 26.4896 17.7611 26.2837 17.4066C26.0779 17.052 25.964 16.7084 25.9421 16.3758C25.9201 16.0431 25.9802 15.742 26.1221 15.4723C26.264 15.2026 26.4783 14.9845 26.765 14.818C27.0518 14.6515 27.3474 14.5735 27.652 14.584C27.9566 14.5944 28.2479 14.6916 28.5259 14.8756C28.8039 15.0595 29.0458 15.3287 29.2517 15.6833ZM28.8577 15.9121C28.6887 15.621 28.4974 15.4036 28.2837 15.2598C28.0711 15.1155 27.8523 15.0398 27.6273 15.0329C27.4034 15.0254 27.1897 15.0807 26.9862 15.1989C26.7826 15.317 26.6281 15.4755 26.5226 15.6744C26.4181 15.8725 26.3753 16.1 26.3942 16.3569C26.4142 16.6131 26.5087 16.8867 26.6777 17.1778C26.8467 17.4689 27.0375 17.6866 27.2501 17.831C27.4638 17.9747 27.6826 18.0504 27.9065 18.0579C28.1315 18.0648 28.3457 18.0092 28.5493 17.891C28.7528 17.7728 28.9068 17.6147 29.0113 17.4165C29.1168 17.2177 29.1595 16.9901 29.1396 16.734C29.1207 16.4771 29.0267 16.2032 28.8577 15.9121Z" fill="black"/>
<path d="M33.4746 11.4581L34.0121 11.2946L36.2152 13.9973L36.2588 13.9841L36.5836 10.5123L37.1212 10.3488L38.2526 14.068L37.8313 14.1962L36.9717 11.3704L36.9353 11.3815L36.6327 14.5608L36.2259 14.6846L34.204 12.2124L34.1677 12.2234L35.0273 15.0492L34.606 15.1773L33.4746 11.4581Z" fill="black"/>
<path d="M40.8226 13.4019L40.2957 9.55029L42.6202 9.23229L42.6768 9.64604L40.8187 9.90024L40.9967 11.2017L42.7345 10.9639L42.7911 11.3777L41.0533 11.6154L41.2324 12.9244L43.1206 12.6661L43.1772 13.0798L40.8226 13.4019Z" fill="black"/>
<path d="M47.1445 12.7445L45.945 12.7251L46.0081 8.83806L47.2608 8.85839C47.6378 8.86451 47.9592 8.94757 48.2249 9.10755C48.4907 9.26627 48.6927 9.49167 48.831 9.78375C48.9693 10.0746 49.0351 10.4211 49.0286 10.8235C49.022 11.2284 48.9442 11.5758 48.7953 11.8658C48.6463 12.1545 48.4326 12.375 48.1542 12.5274C47.8759 12.6786 47.5393 12.7509 47.1445 12.7445ZM46.4225 12.3152L47.1209 12.3265C47.4423 12.3317 47.7097 12.274 47.923 12.1535C48.1363 12.0329 48.2967 11.8589 48.4042 11.6316C48.5117 11.4043 48.568 11.1324 48.5731 10.8161C48.5782 10.5023 48.5313 10.2313 48.4325 10.0032C48.3337 9.77378 48.1835 9.59668 47.9817 9.47191C47.78 9.34586 47.5273 9.28038 47.2236 9.27545L46.472 9.26325L46.4225 12.3152Z" fill="black"/>
<path d="M52.4983 9.12347L52.0535 12.9855L51.5858 12.9316L52.0306 9.06961L52.4983 9.12347Z" fill="black"/>
<path d="M57.3039 11.1955L56.8446 11.0925C56.847 10.9543 56.8255 10.8276 56.78 10.7123C56.7358 10.5973 56.6731 10.4951 56.592 10.4056C56.5125 10.3151 56.4185 10.2396 56.3102 10.179C56.2019 10.1184 56.0847 10.0739 55.9588 10.0457C55.7291 9.9942 55.508 10.0056 55.2956 10.0798C55.0843 10.1544 54.8984 10.2923 54.7378 10.4936C54.5785 10.6952 54.462 10.9602 54.3883 11.2887C54.3147 11.6172 54.3068 11.9065 54.3648 12.1569C54.424 12.4075 54.5332 12.6116 54.6924 12.7692C54.8529 12.9271 55.0479 13.0318 55.2776 13.0833C55.4035 13.1116 55.5284 13.1214 55.6522 13.1129C55.7761 13.1043 55.8931 13.0767 56.0034 13.0302C56.1153 12.9826 56.2157 12.9163 56.3048 12.8312C56.3955 12.7452 56.469 12.6398 56.5255 12.515L56.9849 12.618C56.9068 12.8041 56.805 12.9635 56.6792 13.0961C56.5535 13.2287 56.4107 13.3335 56.2508 13.4105C56.0912 13.4862 55.9205 13.5329 55.7389 13.5505C55.5585 13.5684 55.3726 13.5559 55.1812 13.513C54.8577 13.4405 54.5877 13.2969 54.3713 13.0824C54.1548 12.8678 54.007 12.5986 53.9279 12.2748C53.8488 11.951 53.8541 11.5891 53.9438 11.189C54.0335 10.7889 54.1833 10.4594 54.3931 10.2004C54.6029 9.94136 54.8515 9.76107 55.1389 9.65951C55.4262 9.55795 55.7316 9.54344 56.0552 9.61599C56.2465 9.65891 56.42 9.72699 56.5755 9.82021C56.7322 9.91372 56.8664 10.0294 56.9781 10.1673C57.0901 10.304 57.1747 10.4591 57.2317 10.6327C57.289 10.8051 57.3131 10.9927 57.3039 11.1955Z" fill="black"/>
<path d="M62.8774 13.7941C62.725 14.1748 62.5247 14.4762 62.2762 14.6985C62.0278 14.9208 61.7537 15.0591 61.4538 15.1136C61.154 15.1681 60.8501 15.1337 60.5423 15.0105C60.2345 14.8874 59.9908 14.7026 59.8113 14.4563C59.6318 14.21 59.5288 13.9207 59.5023 13.5884C59.4758 13.2562 59.5387 12.8997 59.6911 12.519C59.8434 12.1384 60.0438 11.8369 60.2922 11.6146C60.5406 11.3924 60.8148 11.254 61.1146 11.1995C61.4145 11.1451 61.7183 11.1794 62.0261 11.3026C62.334 11.4258 62.5776 11.6105 62.7571 11.8568C62.9366 12.1031 63.0396 12.3924 63.0661 12.7247C63.0926 13.057 63.0297 13.4134 62.8774 13.7941ZM62.4544 13.6248C62.5795 13.3123 62.6327 13.0276 62.6142 12.7708C62.5969 12.5144 62.5216 12.2955 62.3884 12.1141C62.2563 11.9331 62.081 11.7989 61.8625 11.7115C61.644 11.624 61.4239 11.6 61.2023 11.6394C60.9819 11.6794 60.7764 11.7859 60.5858 11.9591C60.3963 12.1327 60.2391 12.3758 60.114 12.6883C59.989 13.0008 59.9351 13.2853 59.9525 13.5416C59.971 13.7985 60.0463 14.0174 60.1783 14.1984C60.3115 14.3798 60.4874 14.5142 60.7059 14.6017C60.9245 14.6891 61.1439 14.7129 61.3644 14.673C61.586 14.6335 61.7915 14.527 61.9809 14.3534C62.1715 14.1802 62.3293 13.9374 62.4544 13.6248Z" fill="black"/>
<path d="M67.554 18.4072L66.563 17.7312L68.7537 14.5197L69.7887 15.2257C70.1002 15.4382 70.3229 15.6843 70.4568 15.9641C70.5915 16.2428 70.6362 16.5422 70.591 16.8621C70.5465 17.1811 70.4109 17.5068 70.1842 17.8392C69.956 18.1737 69.6999 18.4211 69.416 18.5813C69.1328 18.7404 68.833 18.8071 68.5167 18.7813C68.2011 18.7544 67.8802 18.6297 67.554 18.4072ZM67.1872 17.6515L67.7643 18.0451C68.0298 18.2262 68.2848 18.3251 68.5293 18.3418C68.7738 18.3584 69.0034 18.3014 69.2182 18.1706C69.433 18.0399 69.6295 17.8438 69.8078 17.5825C69.9847 17.3232 70.0946 17.0711 70.1375 16.8263C70.1812 16.5803 70.1531 16.3498 70.0533 16.1346C69.9542 15.9184 69.7791 15.7247 69.5282 15.5535L68.9073 15.1299L67.1872 17.6515Z" fill="black"/>
<path d="M74.0275 18.3684L71.511 21.3315L71.1522 21.0268L73.6687 18.0637L74.0275 18.3684Z" fill="black"/>
<path d="M78.3842 24.5015L78.0799 24.1424C78.1652 24.0336 78.2244 23.9195 78.2576 23.8001C78.2917 23.6817 78.3033 23.5624 78.2926 23.4421C78.2836 23.3219 78.2542 23.205 78.2044 23.0914C78.1545 22.9777 78.0878 22.8716 78.0044 22.7732C77.8522 22.5936 77.669 22.4694 77.4547 22.4005C77.2412 22.3326 77.0097 22.3305 76.7602 22.3943C76.5116 22.4591 76.2588 22.6003 76.002 22.8179C75.7452 23.0356 75.5645 23.2617 75.4598 23.4964C75.356 23.732 75.32 23.9607 75.352 24.1824C75.3848 24.4051 75.4773 24.6063 75.6294 24.7858C75.7129 24.8843 75.8066 24.9675 75.9105 25.0353C76.0145 25.1031 76.1245 25.1517 76.2406 25.1811C76.3585 25.2106 76.4786 25.2182 76.601 25.2041C76.7251 25.1901 76.8474 25.1504 76.9677 25.0849L77.2721 25.444C77.0976 25.5454 76.9202 25.6111 76.74 25.6412C76.5597 25.6712 76.3826 25.6687 76.2086 25.6336C76.0356 25.5978 75.8713 25.5322 75.7158 25.4367C75.5611 25.3422 75.4203 25.2202 75.2935 25.0705C75.0791 24.8176 74.9503 24.5403 74.907 24.2386C74.8636 23.937 74.908 23.6331 75.0401 23.3271C75.1722 23.021 75.3947 22.7355 75.7075 22.4704C76.0203 22.2053 76.3385 22.0327 76.662 21.9526C76.9856 21.8724 77.2926 21.8785 77.5831 21.9707C77.8736 22.0629 78.126 22.2355 78.3403 22.4884C78.4672 22.6381 78.5645 22.797 78.6323 22.9651C78.7009 23.1342 78.7383 23.3074 78.7443 23.4848C78.7512 23.6613 78.7252 23.836 78.666 24.0089C78.6078 24.181 78.5139 24.3452 78.3842 24.5015Z" fill="black"/>
<path d="M77.8754 28.1835L81.1519 26.0914L81.4053 26.4881L78.4808 28.3556L79.4533 29.8786L79.1013 30.1034L77.8754 28.1835Z" fill="black"/>
<path d="M80.2371 31.9611L80.0276 31.5142L84.1534 31.1563L84.3597 31.5963L81.4458 34.5391L81.2363 34.0922L83.7061 31.6512L83.6932 31.6237L80.2371 31.9611ZM81.6894 31.4814L82.5339 33.2826L82.1558 33.4599L81.3113 31.6587L81.6894 31.4814Z" fill="black"/>
<path d="M85.7212 37.7003C85.8985 37.6224 86.0143 37.4904 86.0687 37.3045C86.1231 37.1185 86.116 36.913 86.0473 36.6879C85.997 36.5233 85.9265 36.3873 85.8355 36.2801C85.745 36.1741 85.6426 36.1009 85.5283 36.0603C85.4144 36.021 85.2982 36.0194 85.1796 36.0556C85.0803 36.0859 85.0022 36.1355 84.9452 36.2045C84.8898 36.2744 84.8499 36.354 84.8256 36.4435C84.8025 36.5325 84.7884 36.6228 84.7832 36.7144C84.7793 36.8056 84.7788 36.8884 84.7817 36.9629L84.7952 37.3716C84.7994 37.4762 84.7972 37.5946 84.7886 37.7269C84.7803 37.8604 84.7541 37.9934 84.7099 38.126C84.6673 38.2594 84.5969 38.3801 84.4989 38.4881C84.4009 38.5961 84.2647 38.6766 84.0904 38.7298C83.8895 38.7911 83.6919 38.7939 83.4975 38.7381C83.3036 38.6835 83.1281 38.5703 82.9712 38.3986C82.8146 38.228 82.6928 38 82.6056 37.7143C82.5244 37.448 82.497 37.2043 82.5234 36.9832C82.5503 36.7634 82.6236 36.5743 82.7433 36.416C82.8634 36.259 83.0229 36.1422 83.2218 36.0656L83.3636 36.5304C83.2269 36.5853 83.1251 36.668 83.0583 36.7784C82.993 36.8896 82.9573 37.0156 82.9513 37.1563C82.9469 37.2979 82.9672 37.4425 83.0123 37.5902C83.0647 37.7621 83.1397 37.9079 83.2371 38.0277C83.3357 38.1471 83.4474 38.2314 83.5723 38.2806C83.6983 38.3295 83.8291 38.3332 83.9647 38.2919C84.0882 38.2542 84.1781 38.1891 84.2345 38.0964C84.2909 38.0038 84.3261 37.8938 84.3402 37.7665C84.3543 37.6391 84.3595 37.5046 84.3559 37.3628L84.347 36.8654C84.3419 36.5494 84.391 36.283 84.4942 36.0663C84.5974 35.8496 84.7743 35.703 85.0248 35.6265C85.233 35.563 85.4317 35.5639 85.621 35.6292C85.8119 35.6953 85.9794 35.8109 86.1237 35.9759C86.2696 36.1417 86.3787 36.3433 86.4511 36.5805C86.5243 36.8202 86.5463 37.0463 86.5172 37.2589C86.4894 37.4712 86.4183 37.6543 86.3038 37.8083C86.1898 37.9635 86.0399 38.0727 85.8541 38.136L85.7212 37.7003Z" fill="black"/>
<path d="M86.9736 43.1166C87.1601 43.0645 87.2935 42.9503 87.3736 42.7739C87.4538 42.5975 87.4758 42.393 87.4396 42.1604C87.4131 41.9903 87.3625 41.8458 87.2876 41.7268C87.213 41.6091 87.122 41.5221 87.0146 41.4658C86.9074 41.4107 86.7926 41.3927 86.67 41.4118C86.5675 41.4277 86.4831 41.4658 86.4169 41.5261C86.3522 41.5874 86.3014 41.6606 86.2647 41.7457C86.2293 41.8306 86.2025 41.918 86.1845 42.0079C86.1677 42.0976 86.1555 42.1795 86.1478 42.2537L86.1034 42.6602C86.0927 42.7643 86.0738 42.8812 86.0466 43.011C86.0196 43.142 85.9748 43.27 85.9123 43.3949C85.8512 43.521 85.7645 43.6305 85.6522 43.7236C85.5399 43.8166 85.3937 43.8771 85.2136 43.9051C85.006 43.9374 84.81 43.9122 84.6255 43.8294C84.4412 43.748 84.2836 43.6111 84.1525 43.4189C84.0216 43.2279 83.9332 42.9849 83.8873 42.6898C83.8446 42.4147 83.8519 42.1696 83.9094 41.9545C83.967 41.7406 84.0663 41.5638 84.2072 41.424C84.3484 41.2856 84.5228 41.1925 84.7305 41.1448L84.8052 41.625C84.6621 41.66 84.5496 41.7275 84.4678 41.8273C84.3875 41.9281 84.3344 42.0478 84.3085 42.1863C84.2841 42.3259 84.2838 42.4719 84.3075 42.6245C84.3351 42.802 84.3887 42.957 84.4682 43.0893C84.5489 43.2215 84.6476 43.3208 84.7642 43.3872C84.8821 43.4534 85.011 43.4756 85.1511 43.4538C85.2786 43.4339 85.3769 43.3822 85.4458 43.2984C85.5148 43.2147 85.5652 43.1108 85.5971 42.9868C85.6291 42.8627 85.6533 42.7302 85.6698 42.5893L85.7313 42.0957C85.7709 41.7821 85.8572 41.5254 85.99 41.3254C86.1228 41.1255 86.3187 41.0054 86.5775 40.9651C86.7926 40.9317 86.9892 40.9607 87.1673 41.0521C87.3469 41.1445 87.4965 41.2826 87.616 41.4664C87.7369 41.6512 87.8164 41.8661 87.8546 42.1112C87.8931 42.3588 87.8829 42.5858 87.8241 42.7922C87.7665 42.9984 87.6702 43.1696 87.5351 43.3058C87.4003 43.4434 87.2364 43.5303 87.0436 43.5667L86.9736 43.1166Z" fill="black"/>
<path d="M84.503 46.5698L88.39 46.5067L88.4281 48.8525L88.0105 48.8593L87.9801 46.9841L86.6667 47.0054L86.6952 48.7592L86.2776 48.7659L86.2491 47.0122L84.9282 47.0337L84.9591 48.9392L84.5415 48.946L84.503 46.5698Z" fill="black"/>
<path d="M87.905 55.8468L84.0754 55.1784L84.1563 54.7146L87.4997 55.2982L87.5037 55.2757L87.046 54.2324L87.5172 54.3146L87.9859 55.383L87.905 55.8468Z" fill="black"/>
<path d="M77.2969 45.9699H50.2272V18.9002H45.2249V45.9699H18.1552V50.9722H45.2249V78.0419H50.2272V50.9722H77.2969V45.9699Z" fill="#DE181F"/>
<path d="M57.2118 39.0878V18.9002H52.2094V39.0878V44.0901H57.2118H77.2969V39.0878H57.2118Z" fill="#DE181F"/>
<path d="M38.3428 39.0388H18.1552V44.0367H38.3428H43.3451V39.0388V18.9492H38.3428V39.0388Z" fill="#DE181F"/>
<path d="M38.2937 57.8544V78.0419H43.2961V57.8544V52.852H38.2937H18.2042V57.8544H38.2937Z" fill="#DE181F"/>
<path d="M57.1093 57.8544H77.2969V52.852H57.1093H52.1115V57.8544V77.9439H57.1093V57.8544Z" fill="#DE181F"/>
<path d="M50.6682 88.5456C50.2673 88.5456 49.8709 88.5456 49.47 88.5456C49.3942 88.5456 49.3764 88.5545 49.3898 88.6436C49.4299 88.9687 49.5769 89.2494 49.7283 89.53C49.9065 89.8596 50.147 90.1447 50.4321 90.3897C50.784 90.6882 51.176 90.9198 51.617 91.0401C51.9244 91.1247 52.2451 91.1826 52.5702 91.1737C52.7306 91.1692 52.8954 91.1737 53.0558 91.1737C53.1181 91.1737 53.1404 91.1871 53.1404 91.2539C53.1404 91.6058 53.1404 91.9532 53.1404 92.3051C53.1404 92.3586 53.1271 92.3853 53.0647 92.3853C52.5168 92.3853 51.9689 92.3853 51.4299 92.2383C51.029 92.1314 50.6459 91.98 50.294 91.7706C49.7729 91.4632 49.3319 91.0623 48.9711 90.5768C48.6993 90.2115 48.4811 89.8106 48.3385 89.383C48.0579 88.5278 47.9955 87.6547 48.2494 86.7727C48.3519 86.4119 48.49 86.0644 48.6815 85.7393C48.882 85.3963 49.118 85.0845 49.4031 84.8038C49.5902 84.6212 49.7818 84.4475 49.9911 84.3005C50.2049 84.1535 50.4366 84.0199 50.6816 83.9085C51.3765 83.5922 52.107 83.472 52.8687 83.4942C53.1404 83.5031 53.1404 83.4942 53.1404 83.7659C53.1404 84.0288 53.1404 84.2916 53.1404 84.5588C53.1404 84.7058 53.1404 84.7103 52.9979 84.7058C52.646 84.7058 52.2941 84.7058 51.9422 84.7637C51.5502 84.8261 51.1938 84.9731 50.8597 85.1736C50.5613 85.3517 50.3029 85.5834 50.0758 85.8462C49.7818 86.1892 49.5813 86.5812 49.4343 87.0043C49.4076 87.0845 49.4165 87.1825 49.3853 87.2671C49.372 87.3072 49.3942 87.3251 49.4299 87.3251C49.4789 87.3251 49.5279 87.3251 49.5769 87.3251C50.3297 87.3251 51.0825 87.3251 51.8353 87.3251C51.9377 87.3251 51.96 87.3518 51.96 87.4498C51.9555 87.7794 51.9555 88.1135 51.96 88.4431C51.96 88.5188 51.9422 88.5456 51.862 88.5456C51.4655 88.5456 51.0736 88.5456 50.6771 88.5456H50.6682Z" fill="black"/>
<path d="M47.9065 91.7705C47.9065 91.9487 47.9065 92.1269 47.9065 92.3006C47.9065 92.3496 47.9065 92.3808 47.8441 92.3763C47.2918 92.3763 46.7394 92.3852 46.2004 92.2293C45.8931 92.1402 45.5902 92.0333 45.3006 91.8863C44.9443 91.7037 44.6236 91.481 44.3251 91.2226C44.0801 91.0088 43.8618 90.7638 43.6792 90.4965C43.4565 90.1803 43.2694 89.8417 43.1447 89.4765C42.922 88.8439 42.8106 88.1936 42.8774 87.521C42.9086 87.2002 42.9888 86.8884 43.0823 86.5811C43.158 86.3405 43.265 86.1178 43.3763 85.8906C43.5545 85.5209 43.7995 85.2047 44.0667 84.9062C44.2717 84.6746 44.5077 84.4697 44.7661 84.2959C45.1002 84.0688 45.4565 83.8772 45.8396 83.7481C46.49 83.5253 47.1626 83.4674 47.8441 83.4941C47.8976 83.4941 47.9154 83.512 47.9154 83.5654C47.9154 83.9218 47.9154 84.2737 47.9154 84.63C47.9154 84.6968 47.8976 84.7102 47.8308 84.7102C47.5546 84.7102 47.2829 84.6924 47.0067 84.728C46.6058 84.777 46.2182 84.8706 45.8485 85.0577C45.4254 85.2715 45.0645 85.561 44.775 85.9218C44.4766 86.296 44.2627 86.7281 44.1558 87.2092C44.04 87.7392 44.0578 88.256 44.187 88.7771C44.2449 89.0177 44.3518 89.2315 44.4587 89.4497C44.6592 89.8729 44.9665 90.207 45.3229 90.4921C45.6481 90.7504 46.0178 90.9464 46.4232 91.0533C46.8686 91.1692 47.3274 91.1959 47.7862 91.1692C47.8887 91.1647 47.9243 91.1914 47.9154 91.2983C47.9065 91.4542 47.9154 91.6146 47.9154 91.775L47.9065 91.7705Z" fill="black"/>
</svg>
