<svg width="94" height="93" viewBox="0 0 94 93" fill="none" xmlns="http://www.w3.org/2000/svg">
<mask id="mask0_366_677" style="mask-type:luminance" maskUnits="userSpaceOnUse" x="0" y="0" width="94" height="93">
<path d="M93.5 0H0.5V93H93.5V0Z" fill="white"/>
</mask>
<g mask="url(#mask0_366_677)">
<path d="M45.9511 37.1054L35.9518 44.9455C32.6654 47.5138 28.1902 48.1897 24.2744 46.7704L12.2473 42.3096C8.26162 40.8227 5.3947 37.4433 4.76538 33.3881L2.73756 21.0872C2.10823 17.032 3.7165 12.9768 7.00297 10.4084L17.0022 2.56833C20.2887 1.40443e-05 24.7639 -0.675858 28.6797 0.743473L40.7067 5.20423C44.6225 6.69115 47.4894 10.0705 48.1188 14.0582L50.1466 26.359C50.8458 30.4818 49.2376 34.5371 45.9511 37.1054Z" fill="#005EB8"/>
<path d="M84.2699 43.7965L70.9842 48.7304C67.418 50.0821 63.4323 49.4063 60.4255 47.1083L49.3774 38.4571C46.4406 36.1592 44.9722 32.4419 45.5316 28.7922L47.7691 15.2071C48.3985 11.5574 50.9158 8.516 54.4819 7.16426L67.7676 2.23039C71.3338 0.878649 75.3195 1.55452 78.3263 3.85249L89.3744 12.5036C92.3112 14.8016 93.7797 18.5189 93.2203 22.1686L90.9827 35.7536C90.3534 39.4034 87.8361 42.4448 84.2699 43.7965Z" fill="#005EB8"/>
<path d="M49.3774 56.165L57.4887 49.4063C61.1947 46.2972 66.2992 45.351 70.9842 46.9055L81.1233 50.2849C85.7383 51.8394 89.1646 55.6243 90.1436 60.2878L92.1714 70.4259C93.0804 75.0894 91.4022 79.8881 87.6962 82.9971L79.5849 89.7558C75.8789 92.8648 70.7744 93.8111 66.0894 92.2566L55.9503 88.8772C51.3353 87.3227 47.909 83.5378 46.93 78.8743L44.9022 68.7362C43.9932 64.0727 45.6714 59.274 49.3774 56.165Z" fill="#005EB8"/>
<path d="M13.4361 49.7442L23.5053 46.5676C28.1902 45.0807 33.3646 46.1621 37.0707 49.3387L44.9022 56.165C48.6083 59.3416 50.2165 64.2079 49.1677 68.939L47 78.9419C45.9511 83.6054 42.4549 87.3903 37.7 88.8772L27.6308 92.0538C22.9459 93.5407 17.7714 92.4593 14.0654 89.2827L6.30375 82.3888C2.59773 79.2122 0.989464 74.3459 1.96841 69.6824L4.13608 59.6795C5.25488 55.016 8.75112 51.2311 13.4361 49.7442Z" fill="#005EB8"/>
<path d="M47.3496 90.9724C72.8721 90.9724 93.5 71.0342 93.5 46.3648C93.5 21.6955 72.8721 1.75729 47.3496 1.75729C21.827 1.75729 1.19922 21.6955 1.19922 46.3648C1.19922 71.0342 21.827 90.9724 47.3496 90.9724Z" fill="#005EB8" stroke="white" stroke-miterlimit="10"/>
<path d="M30.6376 60.5582C30.0083 60.5582 29.4489 60.4906 28.9594 60.2878C28.4699 60.0851 27.9804 59.8147 27.6308 59.4768C27.2812 59.1388 26.9316 58.7333 26.7218 58.1926C26.512 57.7195 26.3722 57.1788 26.3722 56.6381C26.3722 56.0974 26.512 55.5567 26.7218 55.0836C26.9316 54.6105 27.2113 54.205 27.6308 53.7994C27.9804 53.4615 28.4699 53.1912 28.9594 52.9884C29.4489 52.7856 30.0782 52.718 30.6376 52.718C31.2669 52.718 31.8263 52.7856 32.3857 52.9884C32.9451 53.1912 33.3646 53.4615 33.7143 53.867L33.015 54.5429C32.6654 54.205 32.3158 54.0022 31.9661 53.867C31.6165 53.7319 31.197 53.6643 30.7075 53.6643C30.218 53.6643 29.7985 53.7319 29.4489 53.867C29.0293 54.0022 28.7496 54.205 28.4 54.4753C28.1203 54.7457 27.9105 55.0836 27.7707 55.4215C27.6308 55.7595 27.5609 56.165 27.5609 56.6381C27.5609 57.0436 27.6308 57.4492 27.7707 57.7871C27.9105 58.125 28.1203 58.463 28.4 58.7333C28.6797 59.0037 29.0293 59.2064 29.3789 59.3416C29.7985 59.4768 30.218 59.5444 30.6376 59.5444C31.0571 59.5444 31.4767 59.4768 31.8962 59.3416C32.3158 59.2064 32.6654 59.0037 33.015 58.6657L33.6443 59.4768C33.2248 59.8147 32.8052 60.0175 32.2458 60.2202C31.7564 60.4906 31.197 60.5582 30.6376 60.5582ZM32.5955 59.4768V56.6381H33.7143V59.6119L32.5955 59.4768Z" fill="white"/>
<path d="M35.8819 60.4906V52.7856H37.0007V60.4906H35.8819Z" fill="white"/>
<path d="M43.0143 60.5582C42.3849 60.5582 41.8255 60.4906 41.3361 60.2878C40.8466 60.0851 40.3571 59.8147 40.0075 59.4768C39.6579 59.1388 39.3082 58.7333 39.0985 58.1926C38.8887 57.7195 38.7488 57.1788 38.7488 56.6381C38.7488 56.0974 38.8887 55.5567 39.0985 55.0836C39.3082 54.6105 39.5879 54.205 40.0075 53.7994C40.3571 53.4615 40.8466 53.1912 41.3361 52.9884C41.8255 52.7856 42.3849 52.718 43.0143 52.718C43.6436 52.718 44.203 52.7856 44.6924 52.9884C45.1819 53.1912 45.6714 53.4615 46.021 53.7994C46.3706 54.1374 46.7203 54.5429 46.93 55.0836C47.1398 55.5567 47.2097 56.0974 47.2097 56.6381C47.2097 57.1788 47.1398 57.7195 46.93 58.1926C46.7203 58.6657 46.4406 59.0712 46.021 59.4768C45.6714 59.8147 45.1819 60.0851 44.6924 60.2878C44.203 60.4906 43.6436 60.5582 43.0143 60.5582ZM43.0143 59.6119C43.4338 59.6119 43.8534 59.5444 44.2729 59.4092C44.6924 59.274 44.9721 59.0712 45.2518 58.8009C45.5315 58.5305 45.7413 58.1926 45.8812 57.8547C46.021 57.5167 46.0909 57.1112 46.0909 56.7057C46.0909 56.3002 46.021 55.8946 45.8812 55.5567C45.7413 55.2188 45.5315 54.8808 45.2518 54.6105C44.9721 54.3401 44.6225 54.1374 44.2729 54.0022C43.9233 53.867 43.5037 53.7994 43.0143 53.7994C42.5947 53.7994 42.1752 53.867 41.7556 54.0022C41.406 54.1374 41.0564 54.3401 40.7767 54.6105C40.497 54.8808 40.2872 55.2188 40.1473 55.5567C40.0075 55.8946 39.9376 56.3002 39.9376 56.7057C39.9376 57.1112 40.0075 57.5167 40.1473 57.8547C40.2872 58.1926 40.497 58.5305 40.7767 58.8009C41.0564 59.0712 41.406 59.274 41.7556 59.4092C42.1052 59.5444 42.5248 59.6119 43.0143 59.6119Z" fill="white"/>
<path d="M48.9579 60.4906V52.7856H52.1045C52.8037 52.7856 53.433 52.9208 53.9225 53.1236C54.412 53.3263 54.8315 53.6642 55.0413 54.0698C55.321 54.4753 55.4609 54.9484 55.4609 55.4891C55.4609 56.0298 55.321 56.5029 55.0413 56.9084C54.7616 57.314 54.412 57.5843 53.9225 57.8547C53.433 58.0574 52.8037 58.1926 52.1045 58.1926H49.5872L50.0767 57.6519V60.4906H48.9579ZM50.1466 57.7195L49.6571 57.1788H52.1045C52.8037 57.1788 53.3631 57.0436 53.7827 56.7057C54.1323 56.3677 54.3421 55.9622 54.3421 55.4215C54.3421 54.8808 54.1323 54.4753 53.7827 54.1374C53.433 53.867 52.8736 53.6642 52.1045 53.6642H49.6571L50.1466 53.1236V57.7195ZM54.3421 60.4906L52.3142 57.7195H53.503L55.5308 60.4906H54.3421Z" fill="white"/>
<path d="M57.2789 60.4906V52.7856H58.188L63.4323 59.1388H63.0128V52.7856H64.1316V60.4906H63.2225L57.9083 54.1374H58.3977V60.4906H57.2789Z" fill="white"/>
<path d="M66.509 60.4906V52.7856H67.6278V60.4906H66.509Z" fill="white"/>
<path d="M47 75.4273C63.5722 75.4273 77.0677 62.383 77.0677 46.3648C77.0677 30.3467 63.5722 17.3023 47 17.3023C30.4278 17.3023 16.9323 30.3467 16.9323 46.3648C16.9323 62.383 30.4278 75.4273 47 75.4273Z" stroke="white" stroke-width="3" stroke-miterlimit="10"/>
</g>
<path d="M11.758 48.1221L6.30391 48.46L6.65353 48.1221L6.79338 49.7442L6.09413 49.8118L5.95428 47.7166L11.758 47.3786V48.1221Z" fill="white"/>
<path d="M11.8279 44.0668C11.8279 44.54 11.6881 44.8779 11.4084 45.2158C11.1287 45.5538 10.7791 45.8241 10.3595 45.9593C9.87005 46.162 9.38058 46.2296 8.75126 46.162C8.12193 46.0945 7.56253 46.0269 7.14299 45.7565C6.72344 45.5538 6.37381 45.2158 6.16404 44.8779C5.95426 44.54 5.88434 44.1344 5.88434 43.6613C5.88434 43.2558 6.02419 42.8503 6.30389 42.5123C6.58359 42.1744 6.93321 41.9041 7.35276 41.7689C7.84223 41.5661 8.33171 41.4985 8.96103 41.5661C9.59035 41.6337 10.1498 41.7013 10.5693 41.9716C10.9888 42.1744 11.3385 42.5123 11.5482 42.8503C11.758 43.1882 11.8279 43.5937 11.8279 44.0668ZM11.0588 43.9993C11.0588 43.7289 10.9889 43.4586 10.849 43.1882C10.7092 42.9854 10.4295 42.7827 10.1498 42.6475C9.80013 42.5123 9.38058 42.4448 8.89111 42.3772C8.40163 42.3772 7.98208 42.3772 7.63246 42.5123C7.28283 42.6475 7.00314 42.7827 6.86329 42.9854C6.65351 43.1882 6.58359 43.4586 6.58359 43.7289C6.58359 43.9993 6.65351 44.2696 6.79336 44.54C6.93321 44.7427 7.21291 44.9455 7.49261 45.0806C7.84223 45.2158 8.26178 45.2834 8.75126 45.351C9.24073 45.4186 9.66028 45.351 10.0099 45.2158C10.3595 45.0807 10.6392 44.9455 10.7791 44.7427C10.9888 44.54 11.0588 44.2696 11.0588 43.9993Z" fill="white"/>
<path d="M12.5272 38.9978C12.4573 39.4033 12.2475 39.8089 11.8979 40.0792C11.6182 40.3496 11.1987 40.5523 10.7092 40.6875C10.2197 40.8227 9.66031 40.7551 9.03098 40.6875C8.40166 40.5523 7.91219 40.3496 7.49264 40.0792C7.07309 39.8089 6.86331 39.4709 6.65354 39.0654C6.51369 38.6599 6.44377 38.2544 6.58362 37.8488C6.65354 37.4433 6.86331 37.0378 7.21294 36.7674C7.49264 36.4971 7.91219 36.2943 8.40166 36.1592C8.89113 36.024 9.45053 36.0916 10.0799 36.1592C10.7092 36.2943 11.1987 36.4971 11.6182 36.7674C12.0378 37.0378 12.2475 37.3757 12.4573 37.7813C12.5971 38.1192 12.5971 38.5247 12.5272 38.9978ZM11.7581 38.8626C11.828 38.5923 11.828 38.3219 11.6881 38.0516C11.5483 37.7813 11.3385 37.5785 11.0588 37.3757C10.7791 37.173 10.3596 37.0378 9.87008 36.9026C9.38061 36.7674 8.96106 36.7674 8.61144 36.835C8.26181 36.9026 7.98211 37.0378 7.77234 37.173C7.56256 37.3757 7.42271 37.5785 7.35279 37.9164C7.28286 38.1868 7.28286 38.4571 7.42271 38.7275C7.56256 38.9978 7.77234 39.2006 8.05204 39.4033C8.33174 39.6061 8.75128 39.7413 9.24076 39.8089C9.73023 39.8765 10.1498 39.944 10.4994 39.8765C10.849 39.8089 11.1287 39.6737 11.3385 39.5385C11.5483 39.4033 11.7581 39.133 11.7581 38.8626Z" fill="white"/>
<path d="M10.9889 34.1315C10.9189 34.4019 10.7092 34.5371 10.5693 34.6722C10.3595 34.8074 10.1498 34.875 9.87006 34.875C9.59036 34.875 9.31066 34.875 9.03096 34.7398C8.75126 34.6047 8.47156 34.4695 8.33171 34.2667C8.12194 34.064 8.05201 33.8612 7.98209 33.6584C7.91216 33.4557 7.98209 33.1853 8.05201 32.915C8.12194 32.6446 8.33171 32.5094 8.47156 32.3743C8.68134 32.2391 8.89111 32.1715 9.17081 32.1715C9.45051 32.1715 9.73021 32.2391 10.0099 32.3067C10.2896 32.4419 10.5693 32.577 10.7092 32.7798C10.9189 32.9826 10.9889 33.1853 11.0588 33.3881C11.1287 33.6584 11.1287 33.8612 10.9889 34.1315ZM10.5693 33.9288C10.6392 33.726 10.6392 33.5233 10.4994 33.3205C10.3595 33.1177 10.1498 32.9826 9.80013 32.8474C9.45051 32.7122 9.17081 32.7122 8.96104 32.7798C8.75126 32.8474 8.54149 32.9826 8.47156 33.1853C8.40164 33.3881 8.40164 33.6584 8.54149 33.8612C8.68134 34.064 8.89111 34.1991 9.24074 34.3343C9.59036 34.4695 9.87006 34.4695 10.0798 34.4019C10.2896 34.3343 10.4994 34.1991 10.5693 33.9288ZM13.3663 35.5509L9.45051 29.8735L9.66028 29.2653L13.5761 34.9426L13.3663 35.5509ZM14.9046 31.766C14.8347 32.0363 14.6249 32.1715 14.4851 32.3067C14.2753 32.4419 14.0655 32.5094 13.7858 32.5094C13.5061 32.5094 13.2264 32.4419 12.9468 32.3743C12.6671 32.3067 12.3874 32.1039 12.2475 31.9012C12.1077 31.6984 11.9678 31.4956 11.8979 31.2929C11.828 31.0901 11.8979 30.8198 11.9678 30.5494C12.0377 30.2791 12.2475 30.1439 12.3874 30.0087C12.5971 29.8735 12.8069 29.806 13.0866 29.806C13.3663 29.806 13.646 29.806 13.9257 29.9411C14.2054 30.0763 14.4851 30.2115 14.6249 30.4142C14.8347 30.617 14.9046 30.8198 14.9746 31.0225C15.0445 31.2929 15.0445 31.5632 14.9046 31.766ZM14.4851 31.6308C14.555 31.428 14.555 31.1577 14.4152 30.9549C14.2753 30.7522 14.0655 30.617 13.7159 30.4818C13.3663 30.3467 13.0866 30.3467 12.8768 30.4142C12.6671 30.4818 12.4573 30.617 12.3874 30.8198C12.3174 31.0225 12.3174 31.2929 12.4573 31.4956C12.5971 31.6984 12.8069 31.8336 13.1565 31.9687C13.5061 32.1039 13.7858 32.1039 13.9956 32.0363C14.2054 31.9687 14.4152 31.8336 14.4851 31.6308Z" fill="white"/>
<path d="M16.9324 28.1163L12.1776 24.8721L13.5061 23.0472C13.7858 22.6417 14.1354 22.3714 14.4851 22.1686C14.8347 21.9658 15.1843 21.8983 15.5339 21.8983C15.8836 21.8983 16.2332 22.0334 16.5828 22.3038C16.9324 22.5741 17.1422 22.8445 17.2821 23.1148C17.4219 23.4528 17.4219 23.7907 17.352 24.1962C17.2821 24.6017 17.0723 24.9397 16.7926 25.3452L15.7437 26.7645L15.6738 26.2238L17.4219 27.4404L16.9324 28.1163ZM15.7437 26.2914L15.1843 26.359L16.2332 24.9397C16.5129 24.5342 16.6527 24.1286 16.6527 23.7907C16.6527 23.4528 16.443 23.1824 16.0933 22.9121C15.7437 22.7093 15.3941 22.5741 15.0445 22.7093C14.6948 22.7769 14.3452 23.0472 14.0655 23.4528L13.0166 24.8721L12.9467 24.3314L15.7437 26.2914ZM19.24 25.0073H16.6527L17.1422 24.3314H19.7294L19.24 25.0073Z" fill="white"/>
<path d="M20.4986 23.5879L16.1633 19.803L16.7227 19.1948L21.058 22.9796L20.4986 23.5879Z" fill="white"/>
<path d="M21.9671 21.8982L18.261 17.5727L18.8204 17.1671L23.6453 18.7892L23.3656 18.992L22.5265 14.1257L23.0859 13.7202L26.8618 18.0458L26.2325 18.5189L23.2956 15.1395L23.4355 15.0043L24.1347 19.3299L23.855 19.6003L19.5896 18.1809L19.7295 18.0458L22.6663 21.4251L21.9671 21.8982Z" fill="white"/>
<path d="M27.9806 17.3023L25.1836 12.3685L27.4911 11.1519C28.1204 10.8139 28.6099 10.6788 29.0295 10.7464C29.449 10.8139 29.7986 11.0167 30.0084 11.4222C30.1483 11.6926 30.2182 11.9629 30.2182 12.1657C30.2182 12.436 30.0783 12.6388 29.9385 12.8416C29.7986 13.0443 29.5889 13.2471 29.3092 13.3823V13.1119C29.5889 12.9767 29.8686 12.8416 30.1483 12.8416C30.428 12.8416 30.7077 12.8416 30.9174 12.9767C31.1272 13.1119 31.337 13.3147 31.5468 13.585C31.7565 13.9905 31.8265 14.3961 31.6167 14.8016C31.4069 15.2071 30.9874 15.6126 30.358 15.9506L27.9806 17.3023ZM28.4001 16.3561L30.0783 15.4775C30.4979 15.2747 30.7776 15.0044 30.9174 14.8016C31.0573 14.5312 31.0573 14.2609 30.9174 13.9905C30.7776 13.7202 30.4979 13.5174 30.2182 13.5174C29.9385 13.5174 29.5889 13.585 29.1693 13.7878L27.4212 14.734L27.0716 14.1933L28.6798 13.3823C29.0295 13.1795 29.3092 12.9767 29.449 12.7064C29.5889 12.436 29.5889 12.2333 29.449 11.9629C29.3092 11.6926 29.0994 11.5574 28.8197 11.5574C28.54 11.5574 28.1904 11.625 27.8407 11.8278L26.3024 12.6388L28.4001 16.3561Z" fill="white"/>
<path d="M35.8821 13.8554C35.4625 13.9905 35.043 14.0581 34.6234 14.0581C34.2039 14.0581 33.8543 13.923 33.5046 13.7878C33.155 13.6526 32.8753 13.3823 32.5956 13.1119C32.3159 12.8416 32.1061 12.5036 31.9663 12.0981C31.8264 11.6926 31.7565 11.3546 31.8264 10.9491C31.8264 10.5436 31.9663 10.2057 32.1761 9.86772C32.3858 9.52978 32.5956 9.25943 32.9452 8.98909C33.2249 8.71874 33.6445 8.51598 34.064 8.3808C34.4836 8.24563 34.9031 8.17804 35.3227 8.17804C35.7422 8.17804 36.0919 8.31321 36.4415 8.44839C36.7911 8.58356 37.0708 8.85391 37.3505 9.12426C37.6302 9.39461 37.84 9.73254 37.9798 10.1381C38.1197 10.5436 38.1896 10.9491 38.1197 11.2871C38.1197 11.6926 37.9798 12.0305 37.7701 12.3684C37.5603 12.7064 37.3505 12.9767 37.0009 13.2471C36.7212 13.5174 36.3016 13.7202 35.8821 13.8554ZM35.6723 13.1795C35.952 13.1119 36.2317 12.9091 36.5114 12.774C36.7212 12.5712 36.931 12.3684 37.0708 12.0981C37.2107 11.8277 37.2806 11.5574 37.2806 11.2871C37.2806 11.0167 37.2806 10.7464 37.1407 10.4084C37.0708 10.1381 36.861 9.86772 36.7212 9.66496C36.5114 9.4622 36.3016 9.25943 36.0219 9.19185C35.7422 9.05667 35.4625 8.98909 35.1828 8.98909C34.9031 8.98909 34.5535 8.98909 34.2738 9.12426C33.9941 9.19185 33.7144 9.39461 33.4347 9.52978C33.2249 9.73255 33.0152 9.93531 32.8753 10.2057C32.7355 10.476 32.6655 10.7464 32.6655 11.0167C32.6655 11.2871 32.6655 11.5574 32.8054 11.8953C32.8753 12.1657 33.0851 12.436 33.2249 12.6388C33.4347 12.8416 33.6445 13.0443 33.9242 13.1119C34.2039 13.2471 34.4836 13.3147 34.7633 13.3147C35.043 13.3147 35.3227 13.2471 35.6723 13.1795Z" fill="white"/>
<path d="M39.7979 12.7064L38.9588 7.16425L41.1964 6.82632C41.6858 6.75873 42.1753 6.75873 42.5249 6.8939C42.9445 7.02908 43.2242 7.16425 43.434 7.4346C43.6437 7.70495 43.8535 8.04289 43.8535 8.44841C43.9234 8.85393 43.8535 9.19187 43.7137 9.5298C43.5738 9.86774 43.2941 10.1381 43.0144 10.3409C42.6648 10.5436 42.2452 10.6788 41.7558 10.7464L39.9377 11.0167L40.2873 10.6112L40.637 12.6388L39.7979 12.7064ZM40.2873 10.6112L39.8678 10.2733L41.6858 10.0029C42.2452 9.93533 42.5949 9.73257 42.8746 9.5298C43.0843 9.25946 43.2242 8.92152 43.1543 8.516C43.0843 8.11047 42.8746 7.84012 42.5949 7.63736C42.3152 7.4346 41.8956 7.4346 41.3362 7.50219L39.5182 7.77254L39.7979 7.29943L40.2873 10.6112ZM43.6437 12.1657L41.8257 10.3409L42.7347 10.2057L44.5528 12.0305L43.6437 12.1657Z" fill="white"/>
<path d="M47.2798 12.0981C46.8603 12.0981 46.3708 12.0305 46.0212 11.8953C45.6716 11.7602 45.3219 11.625 45.0422 11.3546L45.3219 10.7464C45.5317 10.9491 45.8114 11.0843 46.161 11.2195C46.5107 11.3546 46.8603 11.4222 47.2798 11.4222C47.6295 11.4222 47.9092 11.3546 48.1189 11.2871C48.3287 11.2195 48.4686 11.0843 48.6084 10.9491C48.6783 10.8139 48.7483 10.6788 48.7483 10.476C48.7483 10.2733 48.6783 10.1381 48.5385 10.0029C48.3986 9.86773 48.2588 9.80014 48.049 9.73255C47.8392 9.66497 47.6295 9.59738 47.3498 9.52979C47.0701 9.4622 46.8603 9.39462 46.5806 9.32703C46.3009 9.25944 46.0911 9.19185 45.8813 9.05668C45.6716 8.92151 45.5317 8.78633 45.3919 8.58357C45.252 8.38081 45.1821 8.17805 45.1821 7.84011C45.1821 7.56976 45.252 7.29941 45.3919 7.02906C45.5317 6.75872 45.8114 6.62354 46.161 6.42078C46.5107 6.2856 46.9302 6.21802 47.4197 6.21802C47.7693 6.21802 48.1189 6.2856 48.4686 6.35319C48.8182 6.42078 49.0979 6.55595 49.3077 6.75872L49.028 7.367C48.7483 7.23183 48.5385 7.09665 48.2588 7.02906C47.9791 6.96148 47.6994 6.89389 47.4197 6.89389C47.0701 6.89389 46.7904 6.96148 46.5806 7.02906C46.3708 7.09665 46.231 7.23183 46.0911 7.367C46.0212 7.50217 45.9513 7.63735 45.9513 7.84011C45.9513 8.04287 46.0212 8.17805 46.161 8.31322C46.3009 8.4484 46.4407 8.51598 46.6505 8.58357C46.8603 8.65116 47.0701 8.71874 47.3498 8.78633C47.6295 8.85392 47.8392 8.92151 48.1189 8.98909C48.3986 9.05668 48.6084 9.12427 48.8182 9.25944C49.0279 9.39462 49.1678 9.52979 49.3077 9.73255C49.4475 9.93531 49.5174 10.1381 49.5174 10.476C49.5174 10.7464 49.4475 11.0167 49.2377 11.2871C49.0979 11.5574 48.8182 11.6926 48.4686 11.8953C48.1889 12.0305 47.7693 12.0981 47.2798 12.0981Z" fill="white"/>
<path d="M53.0836 12.5712C52.664 12.5036 52.2445 12.3685 51.8949 12.1657C51.5453 11.9629 51.2656 11.6926 50.9859 11.4222C50.7761 11.1519 50.5663 10.814 50.4964 10.4084C50.4265 10.0705 50.3565 9.66498 50.4265 9.25945C50.4964 8.85393 50.6362 8.51599 50.846 8.17806C51.0558 7.84012 51.3355 7.56977 51.6152 7.36701C51.9648 7.16425 52.3144 7.02907 52.664 6.96149C53.0836 6.8939 53.5031 6.8939 53.9227 6.96149C54.3422 7.02907 54.7618 7.16425 55.1114 7.36701C55.461 7.56977 55.7407 7.84012 56.0204 8.11047C56.3001 8.38082 56.44 8.71875 56.5099 9.12428C56.5798 9.46221 56.5798 9.86774 56.5099 10.2733C56.44 10.6788 56.3001 11.0167 56.0904 11.3547C55.8806 11.6926 55.6009 11.9629 55.3212 12.1657C55.0415 12.3685 54.6219 12.5036 54.2723 12.5712C53.9227 12.6388 53.5031 12.6388 53.0836 12.5712ZM53.2234 11.8954C53.5731 11.9629 53.8528 11.9629 54.1325 11.8954C54.4122 11.8278 54.6919 11.6926 54.9016 11.5574C55.1114 11.4222 55.3212 11.2195 55.461 10.9491C55.6009 10.6788 55.7407 10.4084 55.8107 10.1381C55.8806 9.80015 55.8806 9.5298 55.8107 9.25945C55.7407 8.9891 55.6009 8.71876 55.461 8.51599C55.3212 8.31323 55.1114 8.11047 54.8317 7.9753C54.552 7.84012 54.2723 7.70495 53.9926 7.63736C53.643 7.56977 53.3633 7.56977 53.0836 7.63736C52.8039 7.70495 52.5242 7.84012 52.3144 7.9753C52.1046 8.11047 51.8949 8.31323 51.6851 8.58358C51.5452 8.85393 51.4054 9.12428 51.3355 9.39463C51.2656 9.73256 51.2656 10.0029 51.3355 10.2733C51.4054 10.5436 51.5452 10.814 51.6851 11.0167C51.8249 11.2195 52.0347 11.4222 52.3144 11.5574C52.5941 11.6926 52.8738 11.8278 53.2234 11.8954Z" fill="white"/>
<path d="M61.4746 15.0044C61.055 14.8016 60.7054 14.5988 60.4257 14.3285C60.146 14.0581 59.9362 13.7202 59.7964 13.3823C59.6565 13.0443 59.5866 12.7064 59.5866 12.3009C59.5866 11.8953 59.6565 11.5574 59.8663 11.1519C60.0062 10.7464 60.2859 10.476 60.5656 10.2057C60.8453 9.93532 61.1949 9.73256 61.5445 9.59738C61.8941 9.46221 62.3137 9.39462 62.6633 9.39462C63.0129 9.39462 63.5024 9.5298 63.9219 9.66497C64.3415 9.86773 64.6911 10.0705 64.9708 10.3408C65.2505 10.6112 65.4603 10.9491 65.6001 11.2871L64.9009 11.5574C64.761 11.2871 64.6212 11.0167 64.4114 10.814C64.2016 10.6112 63.9219 10.4084 63.6423 10.3408C63.3626 10.2057 63.0129 10.1381 62.7332 10.1381C62.4535 10.1381 62.1738 10.2057 61.8941 10.2733C61.6144 10.3408 61.4047 10.5436 61.1949 10.7464C60.9851 10.9491 60.8453 11.2195 60.7054 11.4898C60.5656 11.7602 60.4956 12.0305 60.4956 12.3685C60.4956 12.6388 60.5656 12.9092 60.6355 13.1795C60.7753 13.4499 60.9152 13.6526 61.125 13.8554C61.3347 14.0581 61.6144 14.2609 61.8941 14.3285C62.1738 14.4637 62.4535 14.5313 62.8031 14.5313C63.0828 14.5313 63.4325 14.4637 63.7122 14.3285L63.9919 15.0044C63.6423 15.1395 63.2227 15.2747 62.8031 15.2071C62.3137 15.2747 61.8941 15.2071 61.4746 15.0044Z" fill="white"/>
<path d="M66.4392 17.6403C66.0896 17.4375 65.74 17.0996 65.5302 16.8292C65.3204 16.4913 65.1106 16.1533 65.0407 15.8154C64.9708 15.4775 64.9708 15.0719 64.9708 14.734C65.0407 14.3285 65.1806 13.9905 65.3903 13.6526C65.6001 13.3147 65.8798 13.0443 66.2294 12.8416C66.5791 12.6388 66.9287 12.5036 67.2783 12.436C67.6279 12.3684 68.0475 12.3684 68.467 12.436C68.8866 12.5036 69.2362 12.7064 69.6558 12.9091C70.0054 13.1119 70.355 13.4498 70.5648 13.7202C70.7746 14.0581 70.9843 14.3961 71.0543 14.734C71.1242 15.0719 71.1242 15.4775 71.0543 15.8154C70.9843 16.2209 70.8445 16.5589 70.6347 16.8968C70.4249 17.2347 70.1452 17.5051 69.7956 17.7078C69.446 17.9106 69.0964 18.0458 68.7467 18.1134C68.3971 18.1809 67.9776 18.1809 67.558 18.1134C67.1385 17.9782 66.7888 17.843 66.4392 17.6403ZM66.7888 17.032C67.0685 17.2347 67.3482 17.3023 67.6279 17.3699C67.9076 17.4375 68.1873 17.4375 68.467 17.3699C68.7467 17.3023 69.0264 17.2347 69.2362 17.032C69.446 16.8968 69.6558 16.694 69.8655 16.4237C70.0753 16.1533 70.1452 15.883 70.2152 15.6126C70.2851 15.3423 70.2851 15.0719 70.2152 14.8016C70.1452 14.5312 70.0054 14.2609 69.8655 14.0581C69.7257 13.8554 69.446 13.585 69.1663 13.4498C68.8866 13.2471 68.6069 13.1795 68.3272 13.1119C68.0475 13.0443 67.7678 13.0443 67.4881 13.1119C67.2084 13.1795 66.9287 13.2471 66.7189 13.4498C66.5091 13.585 66.2994 13.7878 66.0896 14.0581C65.8798 14.3285 65.8099 14.5988 65.74 14.8692C65.67 15.1395 65.67 15.4099 65.74 15.6802C65.8099 15.9506 65.9497 16.2209 66.0896 16.4237C66.2994 16.6264 66.5091 16.8292 66.7888 17.032Z" fill="white"/>
<path d="M69.7956 19.7354L73.9212 15.7478L74.4107 16.2209L73.2219 21.0196L72.9422 20.7493L77.9069 19.5327L78.3964 20.0058L74.2708 23.9934L73.7114 23.4527L76.928 20.3437L77.0678 20.4789L72.7325 21.5603L72.4528 21.29L73.5016 17.032L73.6415 17.1671L70.4249 20.2761L69.7956 19.7354Z" fill="white"/>
<path d="M75.1099 25.1424L79.9347 21.9658L81.1934 23.7907C81.4731 24.1962 81.6828 24.6017 81.7528 25.0072C81.8227 25.4128 81.8227 25.7507 81.6828 26.0886C81.543 26.4266 81.2633 26.6969 80.9137 26.8997C80.564 27.1024 80.2144 27.2376 79.8648 27.2376C79.5152 27.2376 79.1655 27.17 78.8159 26.9673C78.4663 26.7645 78.1866 26.4266 77.837 26.0211L76.7881 24.5341L77.3475 24.6017L75.5994 25.7507L75.1099 25.1424ZM77.2776 24.6693L77.4174 24.1286L78.4663 25.5479C78.746 25.9535 79.0956 26.2238 79.4452 26.359C79.7949 26.4266 80.1445 26.4266 80.4941 26.1562C80.8437 25.9535 81.0535 25.6155 81.0535 25.2776C81.0535 24.9397 80.9836 24.5341 80.634 24.1286L79.5851 22.7093L80.1445 22.7769L77.2776 24.6693Z" fill="white"/>
<path d="M78.1866 29.7384L83.4309 27.3052L83.7806 28.0487L79.1655 30.1439L80.564 32.915L79.9347 33.1853L78.1866 29.7384Z" fill="white"/>
<path d="M81.0535 34.4695L82.1024 37.6461L81.4032 37.8488L80.0746 33.9288L85.5986 32.1715L86.8573 35.9564L86.158 36.1592L85.1092 33.1177L81.0535 34.4695ZM83.5009 33.5908L84.4099 36.3619L83.7107 36.5647L82.8016 33.7936L83.5009 33.5908Z" fill="white"/>
<path d="M81.8227 39.944L86.8573 39.133L86.5077 37.2405L87.2069 37.1054L87.9761 41.7689L87.2768 41.9041L86.9272 40.0116L81.8926 40.8227L81.8227 39.944Z" fill="white"/>
<path d="M82.2422 45.7565C82.2422 45.351 82.3122 44.9455 82.452 44.54C82.5919 44.202 82.8016 43.8641 83.0813 43.5937C83.361 43.3234 83.6407 43.1206 84.0603 42.9854C84.4099 42.8503 84.8295 42.7827 85.249 42.7827C85.6686 42.7827 86.0881 42.8503 86.4377 42.9854C86.7874 43.1206 87.137 43.3234 87.4167 43.5937C87.6964 43.8641 87.9062 44.202 88.046 44.54C88.1859 44.8779 88.2558 45.2834 88.2558 45.7565C88.2558 46.162 88.1859 46.5676 88.046 46.9731C87.9062 47.311 87.6964 47.649 87.4167 47.9193C87.137 48.1897 86.8573 48.3924 86.4377 48.5276C86.0881 48.6628 85.6686 48.7304 85.249 48.7304C84.8295 48.7304 84.4099 48.6628 84.0603 48.5276C83.7107 48.3924 83.361 48.1897 83.0813 47.9193C82.8016 47.649 82.5919 47.311 82.452 46.9731C82.3122 46.5676 82.2422 46.162 82.2422 45.7565ZM83.0114 45.7565C83.0114 46.0945 83.0813 46.3648 83.1513 46.6352C83.2911 46.9055 83.431 47.1083 83.6407 47.311C83.8505 47.5138 84.0603 47.649 84.34 47.7841C84.6197 47.9193 84.8994 47.9193 85.249 47.9193C85.5986 47.9193 85.8783 47.8517 86.158 47.7841C86.4377 47.649 86.6475 47.5138 86.8573 47.311C87.0671 47.1083 87.2069 46.9055 87.3468 46.6352C87.4866 46.3648 87.4866 46.0945 87.4866 45.7565C87.4866 45.4186 87.4167 45.1482 87.3468 44.8779C87.2069 44.6075 87.0671 44.4048 86.8573 44.202C86.6475 43.9993 86.4377 43.8641 86.158 43.7289C85.8783 43.5937 85.5986 43.5937 85.249 43.5937C84.8994 43.5937 84.6197 43.6613 84.34 43.7289C84.0603 43.8641 83.8505 43.9993 83.6407 44.202C83.431 44.4048 83.2911 44.6075 83.1513 44.8779C83.0813 45.1482 83.0114 45.4186 83.0114 45.7565Z" fill="white"/>
<path d="M9.101 53.7994C9.44857 53.7994 9.73033 53.5271 9.73033 53.1911C9.73033 52.8552 9.44857 52.5828 9.101 52.5828C8.75344 52.5828 8.47168 52.8552 8.47168 53.1911C8.47168 53.5271 8.75344 53.7994 9.101 53.7994Z" fill="white"/>
<path d="M85.1088 53.7994C85.4563 53.7994 85.7381 53.5271 85.7381 53.1911C85.7381 52.8552 85.4563 52.5828 85.1088 52.5828C84.7612 52.5828 84.4794 52.8552 84.4794 53.1911C84.4794 53.5271 84.7612 53.7994 85.1088 53.7994Z" fill="white"/>
<path d="M22.8759 79.415C22.4564 79.1446 22.1068 78.8067 21.8271 78.4012C21.5474 77.9956 21.3376 77.5901 21.2677 77.1846C21.1977 76.7791 21.1977 76.306 21.2677 75.9004C21.3376 75.4949 21.5474 75.0218 21.8271 74.6163C22.1068 74.2108 22.4564 73.8728 22.806 73.6701C23.2255 73.3997 23.6451 73.2645 24.0646 73.197C24.4842 73.1294 24.9737 73.1294 25.4631 73.2645C25.9526 73.3321 26.3722 73.5349 26.8616 73.8728C27.2812 74.1432 27.7007 74.4811 27.9804 74.8866C28.2601 75.2922 28.4 75.6977 28.4699 76.1708L27.6308 76.306C27.5609 75.968 27.421 75.6301 27.2113 75.3597C27.0015 75.0894 26.7218 74.819 26.4421 74.6163C26.0925 74.4135 25.8128 74.2783 25.3932 74.2108C25.0436 74.1432 24.694 74.1432 24.3443 74.2108C23.9947 74.2783 23.715 74.4135 23.4353 74.5487C23.1556 74.7515 22.8759 74.9542 22.6661 75.2922C22.4564 75.5625 22.3165 75.9004 22.2466 76.2384C22.1767 76.5763 22.1767 76.9142 22.2466 77.2522C22.3165 77.5901 22.4564 77.8605 22.6661 78.1308C22.8759 78.4012 23.1556 78.6715 23.4353 78.8743C23.715 79.077 24.0646 79.2122 24.4143 79.2798C24.7639 79.3474 25.1135 79.415 25.5331 79.3474L25.603 80.226C25.1834 80.2936 24.694 80.226 24.2744 80.0908C23.6451 79.8881 23.2255 79.7529 22.8759 79.415ZM24.7639 79.5501L26.2323 77.5225L27.0015 77.9956L25.4631 80.1584L24.7639 79.5501Z" fill="white"/>
<path d="M26.4421 81.6454L31.9661 76.7115L32.8752 77.0494L33.015 84.3488L32.0361 83.9433V77.3198L32.3857 77.4549L27.3511 81.9833L26.4421 81.6454ZM28.33 80.6315L28.8894 80.0233L32.4556 81.5102L32.3857 82.3212L28.33 80.6315Z" fill="white"/>
<path d="M34.7632 84.8219L36.3015 78.3336L38.8887 78.9418C39.4481 79.077 39.9376 79.2798 40.3571 79.5501C40.7068 79.8205 40.9865 80.1584 41.1263 80.4963C41.2662 80.9019 41.2662 81.3074 41.1962 81.7805C41.1263 82.2536 40.9165 82.6591 40.5669 82.9295C40.2872 83.1998 39.8677 83.4026 39.4481 83.5378C38.9586 83.6054 38.4692 83.6054 37.9098 83.4702L35.812 82.9971L36.3714 82.6591L35.7421 85.0247L34.7632 84.8219ZM36.3015 82.7943L35.9519 82.2536L37.9797 82.7267C38.609 82.8619 39.0985 82.7943 39.4481 82.6591C39.7977 82.4564 40.0774 82.1184 40.1474 81.6453C40.2173 81.1722 40.1474 80.7667 39.9376 80.4963C39.6579 80.1584 39.2383 79.9556 38.609 79.8205L36.5812 79.3474L37.1406 78.9418L36.3015 82.7943ZM39.2383 85.8357L38.1195 83.1322L39.1684 83.335L40.2872 86.0385L39.2383 85.8357Z" fill="white"/>
<path d="M41.6158 86.2413L44.9023 79.6853H45.8812L48.7481 86.3764H47.6992L45.112 80.1584H45.5316L42.5248 86.1737L41.6158 86.2413ZM42.9444 84.6192L43.2241 83.8757L47.0699 84.0109L47.3496 84.7543L42.9444 84.6192Z" fill="white"/>
<path d="M50.706 86.2413L49.5173 79.7529L50.2864 79.6177L55.7406 84.2137L55.321 84.2813L54.3421 78.9419L55.321 78.7391L56.5098 85.2275L55.7406 85.3627L50.2864 80.7667L50.706 80.6991L51.6849 86.0385L50.706 86.2413Z" fill="white"/>
<path d="M58.6774 84.6192L58.3977 84.0109L60.6353 77.2522L60.8451 77.5225L56.5097 79.1446L56.1601 78.4012L61.3346 76.4411L61.6143 77.0494L59.3767 83.7406L59.097 83.4702L63.5722 81.7805L63.9218 82.524L58.6774 84.6192Z" fill="white"/>
<path d="M65.6699 81.7805L62.3835 75.968L63.2225 75.4949L66.509 81.3074L65.6699 81.7805Z" fill="white"/>
<path d="M67.9774 80.6991L66.4391 73.6025L67.2083 73.0618L73.7812 76.6439L72.9421 77.2522L66.9985 73.9404L67.2782 73.7376L68.7466 80.226L67.9774 80.6991ZM68.0474 78.6039L67.7677 77.8605L70.9143 75.6977L71.6135 76.1032L68.0474 78.6039Z" fill="white"/>
<path d="M36.4414 46V31.168L38.8654 33.472H33.5614V29.2H42.1054V46H36.4414ZM44.0247 43.12V39.52L51.1527 29.2H56.9607L50.0967 39.52L47.4567 38.728H60.4647V43.12H44.0247ZM52.7367 46V43.12L52.9047 38.728V36.16H58.2327V46H52.7367Z" fill="white"/>
</svg>
