<svg width="17" height="20" viewBox="0 0 17 20" fill="none" xmlns="http://www.w3.org/2000/svg">
<path d="M9.5 19.1345L9.34618 16.5H8.49997C6.27434 16.5 4.38461 15.723 2.83077 14.1692C1.27692 12.6153 0.5 10.7256 0.5 8.49998C0.5 6.27434 1.27692 4.38461 2.83077 2.83078C4.38461 1.27693 6.27434 0.5 8.49997 0.5C9.61279 0.5 10.6529 0.708018 11.6202 1.12405C12.5875 1.54007 13.4346 2.11153 14.1615 2.83845C14.8884 3.56538 15.4599 4.4125 15.8759 5.3798C16.2919 6.3471 16.5 7.38716 16.5 8.49998C16.5 9.63458 16.323 10.724 15.9692 11.7682C15.6153 12.8124 15.1291 13.7894 14.5105 14.699C13.8919 15.6086 13.1544 16.4393 12.298 17.1913C11.4416 17.9432 10.509 18.5909 9.5 19.1345ZM11 16.35C12.1833 15.35 13.1458 14.1791 13.8875 12.8375C14.6291 11.4958 15 10.05 15 8.49998C15 6.68331 14.3708 5.14581 13.1125 3.88748C11.8541 2.62914 10.3166 1.99998 8.49997 1.99998C6.68331 1.99998 5.14581 2.62914 3.88747 3.88748C2.62914 5.14581 1.99997 6.68331 1.99997 8.49998C1.99997 10.3166 2.62914 11.8541 3.88747 13.1125C5.14581 14.3708 6.68331 15 8.49997 15H11V16.35ZM8.50383 13.773C8.74869 13.773 8.9567 13.6875 9.12785 13.5163C9.299 13.3452 9.38457 13.1371 9.38457 12.8923C9.38457 12.6474 9.299 12.4394 9.12785 12.2683C8.9567 12.0971 8.74869 12.0115 8.50383 12.0115C8.25896 12.0115 8.05095 12.0971 7.8798 12.2683C7.70865 12.4394 7.62308 12.6474 7.62308 12.8923C7.62308 13.1371 7.70865 13.3452 7.8798 13.5163C8.05095 13.6875 8.25896 13.773 8.50383 13.773ZM7.92308 10.7231H9.11535C9.12817 10.2679 9.19259 9.93073 9.30863 9.7115C9.42464 9.49227 9.73971 9.1256 10.2538 8.6115C10.5474 8.31792 10.7862 8.00895 10.9701 7.6846C11.1541 7.36023 11.2461 7.00126 11.2461 6.60768C11.2461 5.82178 10.9779 5.21953 10.4413 4.80095C9.90477 4.38237 9.26407 4.17308 8.5192 4.17308C7.84357 4.17308 7.27338 4.35961 6.80865 4.73268C6.3439 5.10576 6.01153 5.55512 5.81152 6.08075L6.92305 6.51535C7.03202 6.2256 7.20958 5.95124 7.45575 5.69228C7.7019 5.43331 8.05638 5.30383 8.5192 5.30383C9.0269 5.30383 9.40447 5.44324 9.6519 5.72208C9.89935 6.00093 10.0231 6.30638 10.0231 6.63845C10.0231 6.94742 9.93813 7.216 9.76825 7.4442C9.59838 7.67242 9.38717 7.91281 9.1346 8.16538C8.60255 8.62691 8.26762 9.01473 8.1298 9.32883C7.99198 9.64293 7.92308 10.1077 7.92308 10.7231Z" fill="#1D2F53"/>
</svg>
